<svg width="319" height="170" viewBox="0 0 319 170" fill="none" xmlns="http://www.w3.org/2000/svg">
<path d="M61.9244 44.4146H72.9976V72.6534C73.7692 71.9666 74.2426 71.5716 74.681 71.1423C83.6675 62.3504 92.6804 53.5843 101.597 44.7236C102.15 44.1079 102.872 43.6601 103.676 43.4334C104.481 43.2067 105.336 43.2105 106.138 43.4444V93.7146H95.1353V65.3039C94.3287 66.0509 93.8289 66.4974 93.3818 66.9696C84.4741 75.7014 75.5577 84.4075 66.7553 93.2166C65.3525 94.6247 63.976 95.2257 61.9244 94.7363V44.4146Z" fill="#202A3F"/>
<path d="M7.30322 44.3975H18.543C18.543 45.1358 18.543 45.8141 18.543 46.4838C18.6307 51.0086 18.4466 55.5677 18.8762 60.0581C19.3759 65.2096 22.8653 68.2318 28.117 68.3864C31.0453 68.4808 33.9999 67.9399 36.937 67.6651C38.1293 67.5621 38.5765 66.9697 38.5765 65.7247C38.5151 59.3283 38.5765 52.9318 38.5765 46.5353V44.4833H49.7286V93.7318H38.5765V78.2258C34.1314 78.4404 29.8967 78.8869 25.6709 78.7838C20.98 78.7736 16.4727 76.9978 13.0816 73.8239C9.69043 70.65 7.67499 66.3209 7.45227 61.7323C7.0928 56.2374 7.23308 50.7081 7.15417 45.1874C7.18198 44.9206 7.23182 44.6564 7.30322 44.3975Z" fill="#202A3F"/>
<path d="M139.796 82.2441C139.796 66.7912 144.475 51.6853 153.241 38.8367C162.008 25.9881 174.469 15.9738 189.047 10.0602C203.625 4.14665 219.667 2.59939 235.144 5.6141C250.62 8.62881 264.836 16.0701 275.994 26.997C287.152 37.9238 294.75 51.8455 297.829 67.0015C300.907 82.1575 299.327 97.8671 293.289 112.144C287.25 126.42 277.024 138.623 263.904 147.208C250.784 155.793 235.358 160.375 219.579 160.375C198.419 160.375 178.126 152.144 163.163 137.491C148.201 122.839 139.796 102.966 139.796 82.2441Z" fill="#E40040"/>
<path d="M218.097 76.7577L200.098 73.6754L198.283 83.8496L207.27 85.3865L200.265 90.9759L206.919 98.9865L221.026 87.739L309.041 102.807L310.865 92.633L231.853 79.1102L295.513 28.3507L288.859 20.3401L218.097 76.7577Z" fill="#202A3F"/>
<path d="M142.031 84.7424C133.018 84.7424 126.188 78.0025 126.171 69.0732C126.115 67.0164 126.484 64.9698 127.254 63.0554C128.024 61.1411 129.18 59.3983 130.653 57.931C132.125 56.4638 133.885 55.3022 135.827 54.5155C137.768 53.7289 139.851 53.3334 141.952 53.3525C150.948 53.3525 157.786 60.2212 157.681 69.1162C157.576 78.0111 150.93 84.7338 142.031 84.7424ZM141.935 43.2642C126.688 43.3328 115.142 54.3571 115.054 68.953C114.966 83.549 126.723 94.9081 141.882 94.9252C157.199 94.9252 168.684 83.8924 168.693 69.0904C168.701 54.2884 157.295 43.2041 141.935 43.2642Z" fill="#202A3F"/>
<path d="M77.0742 106.585H88.1474V134.798C88.9189 134.111 89.3924 133.717 89.8308 133.287C98.8173 124.495 107.839 115.755 116.747 106.894C117.3 106.279 118.021 105.831 118.826 105.604C119.631 105.377 120.485 105.381 121.288 105.615V155.885H110.285V127.475C109.478 128.222 108.979 128.668 108.532 129.14C99.659 137.872 90.7426 146.578 81.9401 155.387C81.3756 156.076 80.6167 156.588 79.7578 156.858C78.899 157.128 77.978 157.145 77.1093 156.907L77.0742 106.585Z" fill="#202A3F"/>
<path d="M22.4444 106.559H33.6929C33.6929 107.306 33.6929 107.976 33.6929 108.646C33.7806 113.179 33.5965 117.73 34.0261 122.229C34.517 127.337 38.0152 130.402 43.2669 130.557C46.2193 130.495 49.1649 130.254 52.0869 129.836C53.2705 129.724 53.7351 129.14 53.7176 127.887C53.6475 121.499 53.7176 115.102 53.7176 108.706V106.645H64.8785V155.894H53.7088V140.439C49.2638 140.645 45.0291 141.1 40.8032 140.997C36.1161 140.98 31.6144 139.202 28.2274 136.029C24.8405 132.856 22.8268 128.531 22.6022 123.946C22.2427 118.451 22.383 112.913 22.3041 107.401C22.3324 107.132 22.3793 106.865 22.4444 106.602" fill="#202A3F"/>
<path d="M157.813 146.904C148.8 146.904 141.979 140.173 141.953 131.243C141.953 127.145 143.616 123.214 146.575 120.315C149.535 117.417 153.549 115.789 157.734 115.789C161.92 115.789 165.934 117.417 168.893 120.315C171.853 123.214 173.516 127.145 173.516 131.243C173.41 140.224 166.756 146.853 157.831 146.861L157.813 146.904ZM157.743 105.391C142.488 105.452 130.95 116.484 130.853 131.072C130.757 145.659 142.523 157.027 157.682 157.053C173.007 157.053 184.484 146.011 184.492 131.218C184.501 116.424 173.095 105.323 157.743 105.391Z" fill="#202A3F"/>
</svg>
